<?xml version="1.0" encoding="UTF-8"?>
<!-- Generated by Pixelmator Pro 2.4.5 -->
<svg width="177" height="52" viewBox="0 0 177 52" xmlns="http://www.w3.org/2000/svg" xmlns:xlink="http://www.w3.org/1999/xlink">
    <path id="path1" fill="#ffffff" stroke="none" d="M 7.79073 23.382601 L 10.4447 22.073799 L 14.6397 15.791901 L 15.9239 15.268501 L 17.293699 21.6376 L 15.4958 21.8993 L 14.126 19.281898 L 13.0987 23.382601 L 17.636101 23.382601 L 22.344801 24.604 L 24.2283 23.382601 L 27.396 26.698 L 28.7658 20.590599 L 30.991699 22.8591 L 32.3615 20.9396 L 34.587399 20.328899 L 37.840698 17.2752 L 38.354301 15.791901 L 41.008301 16.228203 L 42.1213 17.711399 L 40.152199 21.8993 L 45.032101 19.369102 L 45.032101 18.147598 L 46.9156 17.711399 L 48.970299 19.805401 L 51.025002 17.2752 L 51.025002 15.530201 L 54.363899 13.1745 L 55.7337 11.167801 L 57.874001 11.167801 L 61.6409 3.402679 L 64.894203 0 L 66.092697 1.91946 L 64.209297 4.362419 L 64.894203 5.932892 L 66.692001 6.281879 L 68.1474 12.7383 L 68.1474 18.147598 L 70.715797 21.7248 L 72 26.698 L 67.548203 23.8188 L 65.579102 15.530201 L 64.380501 15.791901 L 64.209297 21.375799 L 60.956001 26.698 L 60.014301 34.812099 L 62.2402 35.335602 L 63.1819 34.201302 L 65.322197 36.644299 L 66.948898 43.973202 L 66.777603 48.684601 L 64.723 48.684601 L 63.9524 42.053699 L 62.497002 44.060398 L 59.329399 43.3624 L 56.761002 41.181198 L 53.850201 42.228199 L 54.0214 46.939602 L 51.7099 47.550301 L 48.2854 50.167801 L 44.175999 49.644299 L 42.5494 48.684601 L 39.980999 49.1208 L 40.837101 50.167801 L 38.782398 51.389301 L 37.1558 50.604 L 34.0737 52 L 29.365 49.644299 L 27.5672 45.456402 L 26.026199 45.630901 L 24.2283 44.147701 L 24.1427 43.013401 L 18.4067 42.402699 L 17.464899 45.543598 L 13.8692 43.885899 L 12.0713 40.832199 L 8.21879 40.832199 L 7.79073 45.718102 L 5.5648 46.4161 L 4.45184 50.865799 L 3.59572 50.080502 L 0 40.744999 L 4.28062 38.651001 L 3.59572 34.550301 L 2.91082 30.3624 L 4.79429 27.6577 L 4.19501 26 L 6.76338 23.208099 L 7.79073 23.382601 Z M 64.723 33.677898 L 68.661102 39.610699 L 69.945297 39.0872 L 68.318703 36.644299 L 64.723 32.805401 L 64.723 33.677898 Z M 24.4851 21.6376 L 24.4851 19.892601 L 27.4816 17.711399 L 30.0499 16.402702 L 27.053499 16.402702 L 24.3995 17.973198 L 22.7729 19.456398 L 22.7729 21.6376 L 24.4851 21.6376 Z"/>
    <text id="Russia" xml:space="preserve" x="87" y="38" font-family="Helvetica" font-size="24" font-weight="700" fill="#ffffff">Russia</text>
</svg>
